<svg width="252" height="156" viewBox="0 0 252 156" fill="none" xmlns="http://www.w3.org/2000/svg">
<path fill-rule="evenodd" clip-rule="evenodd" d="M33.7077 122.537C28.3988 122.518 25.0739 114.816 23.9524 110.566V110.125C23.9346 110.199 23.916 110.274 23.8967 110.35C23.8773 110.274 23.8588 110.199 23.8409 110.125V110.566C22.7196 114.816 19.3954 122.517 14.0875 122.537H14.0667C14.0716 122.537 14.0765 122.537 14.0814 122.537C14.0765 122.537 14.0716 122.537 14.0667 122.537H14.0874C19.3953 122.557 22.7195 130.257 23.8408 134.507V134.948C23.8587 134.874 23.8773 134.799 23.8966 134.723C23.9159 134.799 23.9345 134.874 23.9523 134.948V134.507C25.0738 130.257 28.3987 122.555 33.7076 122.537H33.7266C33.7221 122.537 33.7177 122.537 33.7132 122.537C33.7177 122.537 33.7221 122.537 33.7265 122.537H33.7077Z" fill="#6B5CFF"/>
<path fill-rule="evenodd" clip-rule="evenodd" d="M207.841 24.2436C202.524 24.2382 199.194 16.5252 198.072 12.2715V11.832C198.054 11.9056 198.036 11.9805 198.016 12.0566C197.997 11.9805 197.979 11.9056 197.961 11.832V12.2715C196.839 16.524 193.511 24.2337 188.197 24.2436H188.186C188.188 24.2436 188.19 24.2436 188.191 24.2436C188.19 24.2436 188.188 24.2436 188.186 24.2436H188.197C193.511 24.2535 196.839 31.9632 197.961 36.2157V36.6552C197.979 36.5816 197.997 36.5067 198.016 36.4306C198.036 36.5067 198.054 36.5816 198.072 36.6552V36.2157C199.194 31.962 202.524 24.249 207.841 24.2436C207.843 24.2436 207.845 24.2436 207.846 24.2436C207.845 24.2436 207.843 24.2436 207.841 24.2436Z" fill="#6B5CFF"/>
<path d="M136.591 131.791C105.041 138.284 75.2598 138.12 52.6221 132.626C29.9428 127.122 14.6175 116.325 11.6089 101.705C8.6002 87.0856 18.4167 71.1145 37.0796 57.1023C55.7082 43.1159 83.0046 31.2048 114.554 24.712C146.104 18.2191 175.885 18.3837 198.523 23.8776C221.202 29.3816 236.528 40.1786 239.536 54.7981C242.545 69.4176 232.729 85.3887 214.066 99.4009C195.437 113.387 168.141 125.298 136.591 131.791Z" stroke="#6B5CFF"/>
</svg>
