<svg width="252" height="156" viewBox="0 0 252 156" fill="none" xmlns="http://www.w3.org/2000/svg">
<path fill-rule="evenodd" clip-rule="evenodd" d="M33.7075 122.537C28.3985 122.518 25.0737 114.816 23.9522 110.566V110.125C23.9344 110.199 23.9158 110.274 23.8964 110.35C23.8771 110.274 23.8585 110.199 23.8407 110.125V110.566C22.7193 114.816 19.3951 122.517 14.0872 122.537H14.0664C14.0713 122.537 14.0762 122.537 14.0811 122.537C14.0762 122.537 14.0714 122.537 14.0665 122.537H14.0871C19.395 122.557 22.7192 130.257 23.8406 134.507V134.948C23.8584 134.874 23.877 134.799 23.8963 134.723C23.9157 134.799 23.9343 134.874 23.9521 134.948V134.507C25.0736 130.257 28.3984 122.555 33.7074 122.537H33.7264C33.7219 122.537 33.7174 122.537 33.713 122.537C33.7174 122.537 33.7218 122.537 33.7263 122.537H33.7075Z" fill="#FCC773"/>
<path fill-rule="evenodd" clip-rule="evenodd" d="M207.841 24.2436C202.524 24.2382 199.194 16.5252 198.072 12.2715V11.832C198.054 11.9056 198.036 11.9805 198.017 12.0566C197.997 11.9805 197.979 11.9056 197.961 11.832V12.2715C196.839 16.524 193.511 24.2337 188.197 24.2436H188.187C188.188 24.2436 188.19 24.2436 188.192 24.2436C188.19 24.2436 188.188 24.2436 188.187 24.2436H188.197C193.511 24.2535 196.839 31.9632 197.961 36.2157V36.6552C197.979 36.5816 197.997 36.5067 198.017 36.4306C198.036 36.5067 198.054 36.5816 198.072 36.6552V36.2157C199.194 31.962 202.524 24.249 207.841 24.2436C207.843 24.2436 207.845 24.2436 207.847 24.2436C207.845 24.2436 207.843 24.2436 207.841 24.2436Z" fill="#FCC773"/>
<path d="M136.591 131.791C105.042 138.284 75.26 138.12 52.6224 132.626C29.9431 127.122 14.6178 116.325 11.6091 101.705C8.60044 87.0856 18.4169 71.1145 37.0798 57.1023C55.7085 43.1159 83.0048 31.2048 114.555 24.712C146.104 18.2191 175.886 18.3837 198.523 23.8776C221.203 29.3816 236.528 40.1786 239.537 54.7981C242.545 69.4176 232.729 85.3887 214.066 99.4009C195.437 113.387 168.141 125.298 136.591 131.791Z" stroke="#FCC773"/>
</svg>
