<svg width="180" height="111" viewBox="0 0 180 111" fill="none" xmlns="http://www.w3.org/2000/svg">
<path fill-rule="evenodd" clip-rule="evenodd" d="M11.0039 86.839C14.7907 86.8353 17.162 81.3421 17.961 78.3128V78C17.9737 78.0524 17.9869 78.1057 18.0006 78.1598C18.0143 78.1057 18.0275 78.0524 18.0402 78V78.3128C18.8392 81.3421 21.2105 86.8353 24.9973 86.839C24.9982 86.839 24.9991 86.839 25 86.839C24.9991 86.839 24.9982 86.839 24.9973 86.839C21.2105 86.8427 18.8392 92.3359 18.0402 95.3652V95.678C18.0275 95.6256 18.0143 95.5723 18.0006 95.5182C17.9869 95.5723 17.9737 95.6256 17.961 95.678V95.3652C17.162 92.3359 14.7907 86.8427 11.0039 86.839C11.0026 86.839 11.0013 86.839 11 86.839C11.0013 86.839 11.0026 86.839 11.0039 86.839Z" fill="#FCC773"/>
<path fill-rule="evenodd" clip-rule="evenodd" d="M135.004 16.839C138.791 16.8353 141.162 11.3421 141.961 8.31282V8C141.974 8.05236 141.987 8.10565 142.001 8.15982C142.014 8.10565 142.028 8.05236 142.04 8V8.31282C142.839 11.3421 145.21 16.8353 148.997 16.839C148.998 16.839 148.999 16.839 149 16.839C148.999 16.839 148.998 16.839 148.997 16.839C145.21 16.8427 142.839 22.3359 142.04 25.3652V25.678C142.028 25.6256 142.014 25.5723 142.001 25.5182C141.987 25.5723 141.974 25.6256 141.961 25.678V25.3652C141.162 22.3359 138.791 16.8427 135.004 16.839C135.003 16.839 135.001 16.839 135 16.839C135.001 16.839 135.003 16.839 135.004 16.839Z" fill="#FCC773"/>
<path d="M98.2275 93.2888C75.7752 97.9094 54.5882 97.7906 38.4915 93.8841C22.3532 89.9675 11.5155 82.2996 9.39065 71.9747C7.2658 61.6498 14.195 50.3255 27.4752 40.3546C40.7213 30.4095 60.1397 21.9341 82.592 17.3135C105.044 12.6929 126.231 12.8117 142.328 16.7182C158.466 20.6348 169.304 28.3027 171.429 38.6276C173.554 48.9525 166.625 60.2768 153.344 70.2477C140.098 80.1928 120.68 88.6682 98.2275 93.2888Z" stroke="#FCC773"/>
</svg>
