<svg width="179" height="111" viewBox="0 0 179 111" fill="none" xmlns="http://www.w3.org/2000/svg">
<path fill-rule="evenodd" clip-rule="evenodd" d="M10.0216 86.7895C13.8084 86.7858 16.1797 81.2927 16.9787 78.2634V77.9506C16.9914 78.0029 17.0046 78.0562 17.0183 78.1104C17.032 78.0562 17.0452 78.0029 17.0579 77.9506V78.2634C17.8569 81.2927 20.2282 86.7858 24.015 86.7895C24.0159 86.7895 24.0168 86.7896 24.0177 86.7896C24.0168 86.7896 24.0159 86.7896 24.015 86.7896C20.2282 86.7933 17.8569 92.2864 17.0579 95.3157V95.6285C17.0452 95.5762 17.032 95.5229 17.0183 95.4687C17.0046 95.5229 16.9914 95.5762 16.9787 95.6285V95.3157C16.1797 92.2864 13.8084 86.7933 10.0216 86.7896C10.0203 86.7896 10.019 86.7896 10.0177 86.7896C10.019 86.7896 10.0203 86.7895 10.0216 86.7895Z" fill="#6B5CFF"/>
<path fill-rule="evenodd" clip-rule="evenodd" d="M134.021 16.7895C137.808 16.7858 140.18 11.2927 140.979 8.26338V7.95056C140.991 8.00292 141.004 8.05621 141.018 8.11039C141.032 8.05621 141.045 8.00292 141.058 7.95056V8.26338C141.857 11.2927 144.228 16.7858 148.015 16.7895C148.016 16.7895 148.017 16.7896 148.018 16.7896C148.017 16.7896 148.016 16.7896 148.015 16.7896C144.228 16.7933 141.857 22.2864 141.058 25.3157V25.6285C141.045 25.5762 141.032 25.5229 141.018 25.4687C141.004 25.5229 140.991 25.5762 140.979 25.6285V25.3157C140.18 22.2864 137.808 16.7933 134.021 16.7896C134.02 16.7896 134.019 16.7896 134.018 16.7896C134.019 16.7896 134.02 16.7895 134.021 16.7895Z" fill="#6B5CFF"/>
<path d="M97.2451 93.2393C74.7928 97.86 53.6058 97.7412 37.5091 93.8347C21.3708 89.9181 10.5331 82.2502 8.40823 71.9253C6.28338 61.6003 13.2125 50.2761 26.4928 40.3052C39.7389 30.36 59.1573 21.8847 81.6095 17.2641C104.062 12.6435 125.249 12.7623 141.346 16.6687C157.484 20.5853 168.322 28.2532 170.446 38.5782C172.571 48.9031 165.642 60.2274 152.362 70.1982C139.116 80.1434 119.697 88.6187 97.2451 93.2393Z" stroke="#6B5CFF"/>
</svg>
